<?xml version="1.0" ?><svg id="Icons" style="enable-background:new 0 0 32 32;" version="1.1" viewBox="0 0 32 32" xml:space="preserve" xmlns="http://www.w3.org/2000/svg" xmlns:xlink="http://www.w3.org/1999/xlink"><style type="text/css">
	.st0{fill:none;stroke:#000000;stroke-width:2;stroke-linecap:round;stroke-linejoin:round;stroke-miterlimit:10;}
</style><path class="st0" d="M22.4,8.1C22.7,8,23.1,8,23.5,8c3,0,5.5,2.5,5.5,5.5S26.5,19,23.5,19l0.5,9H8l0.5-9c-3,0-5.5-2.5-5.5-5.5  S5.5,8,8.5,8c0.4,0,0.8,0,1.1,0.1"/><path class="st0" d="M23,11c0-3.9-3.1-7-7-7s-7,3.1-7,7"/><line class="st0" x1="16" x2="16" y1="21" y2="24"/><line class="st0" x1="12.5" x2="12" y1="21" y2="23.7"/><line class="st0" x1="19.5" x2="20" y1="21" y2="23.7"/></svg>